<?xml version="1.0" encoding="utf-8"?>
<!-- Generator: Adobe Illustrator 19.1.0, SVG Export Plug-In . SVG Version: 6.00 Build 0)  -->
<svg version="1.1" id="Layer_1" xmlns="http://www.w3.org/2000/svg" xmlns:xlink="http://www.w3.org/1999/xlink" x="0px" y="0px"
	 viewBox="25 83 265 16" style="enable-background:new 25 83 265 16;" xml:space="preserve">
<style type="text/css">
	.st0{fill:#231F20;}
</style>
<path class="st0" d="M33.1,95.3c0,2.4,0,2.7,1.4,2.8l0.7,0.1c0.1,0.1,0.1,0.5,0,0.6c-1.3,0-2.1-0.1-3-0.1s-1.7,0-3.1,0.1
	c-0.1-0.1-0.2-0.5,0-0.6l0.8-0.1c1.3-0.1,1.4-0.5,1.4-2.8V85.2c0-0.7,0-0.7-0.7-0.7h-1.2c-1,0-2.2,0-2.8,0.6c-0.5,0.5-0.8,1-1,1.6
	c-0.2,0.1-0.5,0-0.6-0.2c0.4-1,0.7-2.5,0.9-3.4c0.1,0,0.4-0.1,0.4,0c0.1,0.7,0.9,0.7,1.9,0.7h9.1c1.2,0,1.4,0,1.8-0.6
	c0.1,0,0.4,0,0.4,0.1c-0.2,0.9-0.4,2.8-0.3,3.4c-0.1,0.2-0.5,0.2-0.6,0c-0.1-0.6-0.2-1.4-0.6-1.6c-0.5-0.4-1.4-0.6-2.6-0.6h-1.6
	c-0.7,0-0.7,0-0.7,0.8C33.1,85.2,33.1,95.3,33.1,95.3z"/>
<path class="st0" d="M45.6,91.3c-1.1,0-1.1,0-1.1,0.7v3.2c0,2.4,0.1,2.7,1.4,2.8l0.7,0.1c0.1,0.1,0.1,0.5,0,0.6
	c-1.2,0-2-0.1-2.9-0.1c-1,0-1.7,0-2.6,0.1c-0.1-0.1-0.2-0.4,0-0.6l0.4-0.1c1.3-0.2,1.3-0.5,1.3-2.8v-8.1c0-2.4-0.2-2.8-1.3-2.8
	l-0.6,0c-0.1-0.1-0.1-0.5,0-0.6c1.1,0,1.9,0.1,2.8,0.1c0.9,0,1.6,0,2.6-0.1c0.1,0.1,0.2,0.5,0,0.6l-0.4,0c-1.3,0.1-1.4,0.5-1.4,2.8
	v2.6c0,0.7,0,0.7,1.1,0.7h6.5c1.1,0,1.1,0,1.1-0.7v-2.6c0-2.4,0-2.7-1.4-2.8l-0.4,0c-0.1-0.1-0.1-0.5,0-0.6c1,0,1.8,0.1,2.7,0.1
	c0.9,0,1.6,0,2.7-0.1c0.1,0.1,0.2,0.5,0,0.6l-0.5,0c-1.3,0.1-1.4,0.5-1.4,2.8v8.1c0,2.4,0,2.7,1.4,2.8l0.5,0.1
	c0.1,0.1,0.1,0.5,0,0.6c-1.1,0-1.9-0.1-2.7-0.1c-0.9,0-1.7,0-2.7,0.1c-0.1-0.1-0.2-0.4,0-0.6l0.4-0.1c1.4-0.2,1.4-0.5,1.4-2.8v-3.2
	c0-0.7,0-0.7-1.1-0.7H45.6z"/>
<path class="st0" d="M60.8,87.1c0-2.3,0-2.7-1.4-2.8l-0.4,0c-0.1-0.1-0.1-0.5,0-0.6c1,0,1.7,0.1,2.7,0.1H66c1.4,0,2.8,0,3-0.1
	c0.1,0.4,0.3,2,0.4,3c-0.1,0.1-0.5,0.2-0.6,0c-0.3-1.1-0.5-1.9-1.7-2.1c-0.5-0.1-1.2-0.1-2.2-0.1h-1.6c-0.7,0-0.7,0-0.7,0.9v4.5
	c0,0.6,0.1,0.6,0.7,0.6h1.3c0.9,0,1.6,0,1.9-0.1c0.3-0.1,0.4-0.2,0.5-0.8l0.2-0.9c0.1-0.1,0.5-0.1,0.6,0c0,0.5-0.1,1.4-0.1,2.3
	c0,0.8,0.1,1.7,0.1,2.2c-0.1,0.2-0.5,0.2-0.6,0l-0.2-0.9c-0.1-0.4-0.2-0.7-0.7-0.9c-0.3-0.1-0.9-0.1-1.7-0.1h-1.3
	c-0.7,0-0.7,0-0.7,0.6v3.2c0,1.2,0.1,2,0.4,2.3c0.3,0.3,0.7,0.5,2.7,0.5c1.7,0,2.4-0.1,2.9-0.3c0.4-0.2,1-1,1.6-2.2
	c0.2-0.1,0.5,0,0.6,0.2c-0.2,0.8-0.7,2.5-1,3.1c-2,0-4-0.1-6-0.1h-2c-1,0-1.7,0-3.1,0.1c-0.1-0.1-0.2-0.4,0-0.6l0.7-0.1
	c1.3-0.1,1.4-0.5,1.4-2.8L60.8,87.1L60.8,87.1z"/>
<path class="st0" d="M82.6,91.3c-1.1,0-1.1,0-1.1,0.7v3.2c0,2.4,0.1,2.7,1.4,2.8l0.7,0.1c0.1,0.1,0.1,0.5,0,0.6
	c-1.2,0-2-0.1-2.9-0.1c-1,0-1.7,0-2.6,0.1c-0.1-0.1-0.2-0.4,0-0.6l0.4-0.1c1.3-0.2,1.3-0.5,1.3-2.8v-8.1c0-2.4-0.2-2.8-1.3-2.8
	l-0.6,0c-0.1-0.1-0.1-0.5,0-0.6c1.1,0,1.9,0.1,2.8,0.1c0.9,0,1.6,0,2.6-0.1c0.1,0.1,0.2,0.5,0,0.6l-0.4,0c-1.3,0.1-1.4,0.5-1.4,2.8
	v2.6c0,0.7,0,0.7,1.1,0.7h6.5c1.1,0,1.1,0,1.1-0.7v-2.6c0-2.4,0-2.7-1.4-2.8l-0.4,0c-0.1-0.1-0.1-0.5,0-0.6c1,0,1.8,0.1,2.7,0.1
	c0.9,0,1.6,0,2.7-0.1c0.1,0.1,0.2,0.5,0,0.6l-0.5,0c-1.3,0.1-1.4,0.5-1.4,2.8v8.1c0,2.4,0,2.7,1.4,2.8l0.5,0.1
	c0.1,0.1,0.1,0.5,0,0.6c-1.1,0-1.8-0.1-2.7-0.1c-0.9,0-1.7,0-2.7,0.1c-0.1-0.1-0.2-0.4,0-0.6l0.4-0.1c1.4-0.2,1.4-0.5,1.4-2.8v-3.2
	c0-0.7,0-0.7-1.1-0.7H82.6z"/>
<path class="st0" d="M108.6,89.4c0-1.4,0-4-0.4-4.7c-0.2-0.3-0.6-0.4-1.1-0.5l-0.6,0c-0.1-0.2-0.1-0.5,0-0.5c0.9,0,1.7,0.1,2.6,0.1
	c0.9,0,1.6,0,2.4-0.1c0.2,0.1,0.2,0.4,0,0.5l-0.5,0c-0.6,0-1,0.2-1.1,0.5c-0.3,0.7-0.3,3.3-0.3,4.6V92c0,2-0.3,4-1.6,5.4
	c-1,1.1-2.6,1.6-4.3,1.6c-1.6,0-3.1-0.3-4.2-1.2c-1.2-1-1.8-2.6-1.8-5.3v-5.3c0-2.3,0-2.7-1.4-2.8l-0.6,0c-0.1-0.1-0.1-0.5,0-0.5
	c1.1,0,1.9,0.1,2.8,0.1c0.9,0,1.7,0,2.8-0.1c0.1,0.1,0.2,0.5,0,0.5l-0.5,0c-1.3,0.1-1.4,0.5-1.4,2.8V92c0,3.6,1.1,6,4.6,6
	c3.3,0,4.5-2.6,4.5-6V89.4z"/>
<path class="st0" d="M116.5,90.1c0,0.6,0.1,0.6,0.7,0.6h1.5c0.9,0,1.6,0,1.9-0.1c0.2-0.1,0.4-0.2,0.6-0.8l0.2-0.9
	c0.1-0.1,0.5-0.1,0.6,0c0,0.5-0.1,1.4-0.1,2.3c0,0.8,0.1,1.7,0.1,2.2c-0.1,0.1-0.4,0.1-0.6,0l-0.2-0.9c-0.1-0.4-0.3-0.7-0.7-0.9
	c-0.3-0.1-0.9-0.1-1.7-0.1h-1.5c-0.7,0-0.7,0-0.7,0.6v3.1c0,2.4,0,2.7,1.4,2.8l0.8,0.1c0.1,0.1,0.1,0.5,0,0.6c-1.3,0-2.1-0.1-3-0.1
	c-1,0-1.8,0-2.8,0.1c-0.1-0.1-0.2-0.4,0-0.6l0.6-0.1c1.3-0.2,1.4-0.5,1.4-2.8v-8.1c0-2.4,0-2.7-1.4-2.8l-0.4,0
	c-0.1-0.1-0.1-0.5,0-0.6c0.9,0,1.7,0.1,2.6,0.1h4.2c1.4,0,2.8,0,3-0.1c0,1,0,2.1,0.1,3c-0.1,0.1-0.4,0.2-0.5,0.1
	c-0.2-1-0.5-1.9-1.6-2.1c-0.5-0.1-1.2-0.1-2.2-0.1h-1.4c-0.7,0-0.7,0-0.7,0.9L116.5,90.1L116.5,90.1z"/>
<path class="st0" d="M128.7,90.1c0,0.6,0.1,0.6,0.7,0.6h1.5c0.9,0,1.6,0,1.9-0.1c0.2-0.1,0.4-0.2,0.6-0.8l0.2-0.9
	c0.1-0.1,0.5-0.1,0.6,0c0,0.5-0.1,1.4-0.1,2.3c0,0.8,0.1,1.7,0.1,2.2c-0.1,0.1-0.4,0.1-0.6,0l-0.2-0.9c-0.1-0.4-0.3-0.7-0.7-0.9
	c-0.3-0.1-0.9-0.1-1.7-0.1h-1.5c-0.7,0-0.7,0-0.7,0.6v3.1c0,2.4,0,2.7,1.4,2.8l0.8,0.1c0.1,0.1,0.1,0.5,0,0.6c-1.3,0-2.1-0.1-3-0.1
	c-1,0-1.8,0-2.8,0.1c-0.1-0.1-0.2-0.4,0-0.6l0.6-0.1c1.3-0.2,1.4-0.5,1.4-2.8v-8.1c0-2.4,0-2.7-1.4-2.8l-0.4,0
	c-0.1-0.1-0.1-0.5,0-0.6c0.9,0,1.7,0.1,2.6,0.1h4.2c1.4,0,2.8,0,3-0.1c0,1,0,2.1,0.1,3c-0.1,0.1-0.4,0.2-0.5,0.1
	c-0.2-1-0.5-1.9-1.6-2.1c-0.5-0.1-1.2-0.1-2.2-0.1h-1.4c-0.7,0-0.7,0-0.7,0.9L128.7,90.1L128.7,90.1z"/>
<path class="st0" d="M139,87.2c0-2.4,0-2.8-1.4-2.9l-0.6,0c-0.1-0.1-0.1-0.5,0-0.6c1.1,0,1.9,0.1,2.8,0.1c0.9,0,1.7,0,2.8-0.1
	c0.1,0.1,0.2,0.5,0,0.6l-0.6,0c-1.3,0.1-1.4,0.5-1.4,2.9v8c0,2.4,0,2.7,1.4,2.9l0.6,0.1c0.1,0.1,0.1,0.5,0,0.6
	c-1.1,0-1.9-0.1-2.8-0.1c-0.9,0-1.7,0-2.8,0.1c-0.1-0.1-0.2-0.4,0-0.6l0.6-0.1c1.3-0.2,1.4-0.5,1.4-2.9V87.2z"/>
<path class="st0" d="M158.7,94.8c0,0.7,0,3.4,0.1,3.9c0,0.1-0.2,0.2-0.4,0.2c-0.3-0.4-0.9-1.2-2.9-3.4l-5.2-6
	c-0.6-0.7-2.1-2.6-2.6-3h0c-0.1,0.3-0.1,0.8-0.1,1.5V93c0,1.1,0,4,0.4,4.7c0.1,0.2,0.6,0.4,1.2,0.4l0.7,0.1c0.1,0.2,0.1,0.5,0,0.6
	c-1,0-1.8-0.1-2.6-0.1c-0.9,0-1.6,0-2.3,0.1c-0.2-0.1-0.2-0.4,0-0.6l0.6-0.1c0.5-0.1,0.9-0.2,1-0.5c0.3-0.8,0.3-3.6,0.3-4.6v-6.5
	c0-0.6,0-1.1-0.5-1.6c-0.3-0.3-0.9-0.5-1.4-0.5l-0.4,0c-0.1-0.1-0.1-0.5,0-0.6c0.9,0.1,2.1,0.1,2.6,0.1c0.4,0,0.7,0,1-0.1
	c0.5,1.2,3.1,4.1,3.9,5l2.2,2.5c1.6,1.7,2.7,3,3.7,4.1h0c0.1-0.1,0.1-0.5,0.1-0.9v-4.8c0-1.1,0-4-0.5-4.7c-0.1-0.2-0.5-0.3-1.4-0.5
	l-0.4,0c-0.2-0.1-0.1-0.5,0-0.6c1,0,1.8,0.1,2.7,0.1c1,0,1.6,0,2.3-0.1c0.2,0.1,0.2,0.4,0,0.6l-0.3,0c-0.7,0.1-1.2,0.3-1.3,0.5
	c-0.4,0.8-0.3,3.6-0.3,4.6L158.7,94.8L158.7,94.8z"/>
<path class="st0" d="M176,96.3c0,0.9,0.1,1.4,0.5,1.6c0.1,0.1,0.1,0.2,0,0.3c-0.3,0-0.7,0.1-1.1,0.2c-1.2,0.3-2.8,0.6-4,0.6
	c-2.7,0-5.1-0.7-6.9-2.5c-1.4-1.4-2.1-3.1-2.1-5.1c0-1.9,0.6-3.9,2-5.3c1.5-1.6,3.7-2.6,7.2-2.6c1.3,0,2.5,0.2,2.9,0.3
	c0.4,0.1,1.1,0.2,1.4,0.2c0,0.7,0.1,1.9,0.3,3.3c-0.1,0.2-0.5,0.2-0.6,0.1c-0.6-2.4-2.3-3.2-4.6-3.2c-4.4,0-6.3,3.1-6.3,6.5
	c0,4.3,2.2,7.7,6.8,7.7c1.4,0,2.2-0.3,2.5-0.7c0.1-0.2,0.2-0.6,0.2-1.3v-0.9c0-1.9-0.1-2-1.5-2.2l-1-0.1c-0.2-0.1-0.2-0.5,0-0.6
	c0.7,0,1.9,0.1,3.2,0.1c0.9,0,1.6,0,2.4-0.1c0.2,0.1,0.2,0.4,0,0.6l-0.4,0c-0.9,0.1-1,0.7-1,1.9L176,96.3L176,96.3z"/>
<path class="st0" d="M186.5,95.3c0,2.4,0,2.7,1.4,2.8l0.7,0.1c0.1,0.1,0.1,0.5,0,0.6c-1.3,0-2.1-0.1-3-0.1s-1.7,0-3.1,0.1
	c-0.1-0.1-0.2-0.5,0-0.6l0.8-0.1c1.3-0.1,1.4-0.5,1.4-2.8V85.2c0-0.7,0-0.7-0.7-0.7h-1.2c-1,0-2.2,0-2.8,0.6c-0.5,0.5-0.8,1-1,1.6
	c-0.2,0.1-0.5,0-0.6-0.2c0.4-1,0.7-2.5,0.9-3.4c0.1,0,0.4-0.1,0.4,0c0.1,0.7,0.9,0.7,1.9,0.7h9.1c1.2,0,1.4,0,1.8-0.6
	c0.1,0,0.4,0,0.4,0.1c-0.2,0.9-0.4,2.8-0.3,3.4c-0.1,0.2-0.5,0.2-0.6,0c-0.1-0.6-0.2-1.4-0.6-1.6c-0.5-0.4-1.4-0.6-2.6-0.6h-1.6
	c-0.7,0-0.7,0-0.7,0.8L186.5,95.3L186.5,95.3z"/>
<path class="st0" d="M193.4,91.3c0-4.5,3.4-8,8-8c5.2,0,7.8,3.8,7.8,7.7c0,4.6-3.5,7.9-7.8,7.9C196.5,99,193.4,95.4,193.4,91.3z
	 M207,91.8c0-3.7-1.6-7.7-6-7.7c-2.3,0-5.4,1.6-5.4,6.5c0,3.3,1.6,7.7,6.1,7.7C204.5,98.3,207,96.3,207,91.8z"/>
<path class="st0" d="M225.4,94.8c0,0.7,0,3.4,0.1,3.9c0,0.1-0.2,0.2-0.4,0.2c-0.3-0.4-0.9-1.2-2.9-3.4l-5.2-6
	c-0.6-0.7-2.1-2.6-2.6-3h0c-0.1,0.3-0.1,0.8-0.1,1.5V93c0,1.1,0,4,0.4,4.7c0.1,0.2,0.6,0.4,1.2,0.4l0.7,0.1c0.1,0.2,0.1,0.5,0,0.6
	c-1,0-1.8-0.1-2.6-0.1c-0.9,0-1.6,0-2.3,0.1c-0.2-0.1-0.2-0.4,0-0.6l0.6-0.1c0.5-0.1,0.9-0.2,1-0.5c0.3-0.8,0.3-3.6,0.3-4.6v-6.5
	c0-0.6,0-1.1-0.5-1.6c-0.3-0.3-0.9-0.5-1.4-0.5l-0.4,0c-0.1-0.1-0.1-0.5,0-0.6c0.9,0.1,2.1,0.1,2.6,0.1c0.4,0,0.7,0,1-0.1
	c0.5,1.2,3.1,4.1,3.9,5l2.2,2.5c1.6,1.7,2.7,3,3.7,4.1h0c0.1-0.1,0.1-0.5,0.1-0.9v-4.8c0-1.1,0-4-0.5-4.7c-0.1-0.2-0.5-0.3-1.4-0.5
	l-0.4,0c-0.2-0.1-0.1-0.5,0-0.6c1,0,1.8,0.1,2.7,0.1c1,0,1.6,0,2.3-0.1c0.2,0.1,0.2,0.4,0,0.6l-0.3,0c-0.7,0.1-1.2,0.3-1.3,0.5
	c-0.4,0.8-0.3,3.6-0.3,4.6L225.4,94.8L225.4,94.8z"/>
<path class="st0" d="M238.4,95.3c0,2.4,0,2.7,1.5,2.8l0.6,0.1c0.1,0.1,0.1,0.5,0,0.6c-1.3,0-2-0.1-2.9-0.1c-0.9,0-1.8,0-2.8,0.1
	c-0.1-0.1-0.2-0.4,0-0.6l0.5-0.1c1.3-0.2,1.4-0.5,1.4-2.8v-8.3c0-1.9,0-2.3-1.1-2.4l-0.8-0.1c-0.2-0.1-0.1-0.5,0-0.6
	c1.2-0.2,2.6-0.2,4.5-0.2s3.3,0.2,4.3,0.9c1,0.7,1.8,1.8,1.8,3.4c0,2.1-1.3,3.1-2.3,3.6c-1,0.5-2.2,0.7-3.1,0.7
	c-0.2-0.1-0.2-0.4,0-0.5c2.4-0.5,3.3-1.8,3.3-3.8c0-2.2-1.3-3.6-3.6-3.6c-1.2,0-1.2,0.1-1.2,0.8L238.4,95.3L238.4,95.3z"/>
<path class="st0" d="M247.1,91.3c0-4.5,3.4-8,8-8c5.2,0,7.8,3.8,7.8,7.7c0,4.6-3.5,7.9-7.8,7.9C250.1,99,247.1,95.4,247.1,91.3z
	 M260.7,91.8c0-3.7-1.6-7.7-6-7.7c-2.3,0-5.4,1.6-5.4,6.5c0,3.3,1.6,7.7,6.1,7.7C258.1,98.3,260.7,96.3,260.7,91.8z"/>
<path class="st0" d="M269,99c-1.9,0-3.1-0.6-3.5-0.8c-0.3-0.5-0.6-2.1-0.6-3.2c0.1-0.2,0.5-0.2,0.5-0.1c0.3,1.2,1.3,3.4,3.9,3.4
	c1.9,0,2.8-1.2,2.8-2.6c0-1-0.2-2.1-1.9-3.2l-2.1-1.4c-1.1-0.7-2.4-2-2.4-3.9c0-2.1,1.7-3.9,4.6-3.9c0.7,0,1.5,0.1,2.1,0.3
	c0.3,0.1,0.6,0.1,0.8,0.1c0.2,0.5,0.4,1.8,0.4,2.8c-0.1,0.1-0.5,0.2-0.6,0.1c-0.3-1.1-0.9-2.6-3.1-2.6c-2.2,0-2.7,1.5-2.7,2.5
	c0,1.3,1.1,2.3,1.9,2.8l1.8,1.1c1.4,0.9,2.8,2.2,2.8,4.3C273.8,97.3,272,99,269,99z"/>
<path class="st0" d="M283.3,95.3c0,2.4,0,2.7,1.4,2.8l0.7,0.1c0.1,0.1,0.1,0.5,0,0.6c-1.3,0-2.1-0.1-3-0.1s-1.7,0-3.1,0.1
	c-0.1-0.1-0.2-0.5,0-0.6l0.8-0.1c1.3-0.1,1.4-0.5,1.4-2.8V85.2c0-0.7,0-0.7-0.7-0.7h-1.2c-1,0-2.2,0-2.8,0.6c-0.5,0.5-0.8,1-1,1.6
	c-0.2,0.1-0.5,0-0.6-0.2c0.4-1,0.7-2.5,0.9-3.4c0.1,0,0.4-0.1,0.4,0c0.1,0.7,0.9,0.7,1.9,0.7h9.1c1.2,0,1.4,0,1.8-0.6
	c0.1,0,0.4,0,0.4,0.1c-0.2,0.9-0.4,2.8-0.3,3.4c-0.1,0.2-0.5,0.2-0.6,0c-0.1-0.6-0.2-1.4-0.6-1.6c-0.5-0.4-1.4-0.6-2.6-0.6H284
	c-0.7,0-0.7,0-0.7,0.8V95.3z"/>
</svg>
